<svg viewBox="0 0 3840 1725.7" xmlns="http://www.w3.org/2000/svg" xmlns:xlink="http://www.w3.org/1999/xlink"><linearGradient id="a" gradientUnits="userSpaceOnUse" x1="3294.5" x2="3750.3" y1="1090.9" y2="1161.3"><stop offset="0" stop-color="#b87f77"/><stop offset=".3" stop-color="#926f70"/><stop offset="1" stop-color="#f89e6d"/></linearGradient><linearGradient id="b" gradientUnits="userSpaceOnUse" x1="3799.1" x2="3711.5" y1="1135.5" y2="1178.3"><stop offset="0" stop-color="#183e4d"/><stop offset="1" stop-color="#8d817b"/></linearGradient><linearGradient id="c" gradientUnits="userSpaceOnUse" x1="2680.9" x2="3080.1" y1="989.4" y2="1336"><stop offset="0" stop-color="#f58b72"/><stop offset="1" stop-color="#f8a070"/></linearGradient><linearGradient id="d" gradientUnits="userSpaceOnUse" x1="341.6" x2="315.9" y1="1068" y2="1539.8"><stop offset="0" stop-color="#012d3b"/><stop offset="1" stop-color="#806366"/></linearGradient><linearGradient id="e" gradientUnits="userSpaceOnUse" x1="1529.3" x2="640" y1="1290.4" y2="1470.5"><stop offset="0" stop-color="#163d4a"/><stop offset=".8" stop-color="#ce7a74"/></linearGradient><linearGradient id="f" gradientUnits="userSpaceOnUse" x1="3312.8" x2="3336.3" y1="1316" y2="1720.3"><stop offset="0" stop-color="#012b39"/><stop offset="1" stop-color="#17111d"/></linearGradient><linearGradient id="g" gradientUnits="userSpaceOnUse" x1="568.5" x2="474.2" y1="936.3" y2="1098.4"><stop offset="0" stop-color="#6c4d5a"/><stop offset="1" stop-color="#0c3847"/></linearGradient><linearGradient id="h" gradientUnits="userSpaceOnUse" x1="3138" x2="2989" y1="636.1" y2="892.1"><stop offset="0" stop-color="#06303b"/><stop offset="1" stop-color="#124a56"/></linearGradient><linearGradient id="i" gradientUnits="userSpaceOnUse" x1="2832.7" x2="2301.6" y1="834.2" y2="1088.2"><stop offset=".3" stop-color="#0a3d49"/><stop offset="1" stop-color="#725e5e"/></linearGradient><linearGradient id="j" gradientUnits="userSpaceOnUse" x1="2274.5" x2="2055" y1="735" y2="762.5"><stop offset="0" stop-color="#e78924"/><stop offset="1" stop-color="#cf6a28"/></linearGradient><path d="m3839.8 1020v97.5c-33.3-43.6-52.6-95-78.7-142.5 20-7.6 51.8 32.8 78.7 45z" fill="#022a37"/><path d="m93.9 971.3q90 33.7 180 67.5c-7.8 3.2-17.4 12-26.2 15-6.9-1.4-8.1 4.8-13.1 3.7-49.5-10.1-98.4-20.6-148.1-30-28.6-5.4-56.6-15.4-86.2-15 0-10 0-20 0-30 44.2-28 38.5-.1 93.7-11.2z" fill="#4a6f75"/><path d="m371.4 997.5c-32.6 14.3-64.6 27.7-97.5 41.2q-90-33.7-180-67.5c1.3-.3 12.5-12.4 24.4-11.2 8.6.9 74.3 44.3 78.7 45 8.7 1.3 98.7-25.4 174.4-7.5z" fill="#758782"/><path d="m3686.1 896.3c14.2 226.5-63.2 348.9 153.7 513.7v7.5c-218.3 6.8-306.1-75.5-395.6-97.5-21.9-5.4-230.3-33.7-249.4-33.7 88.5-120.8 176.5-249.6 311.2-322.5 13.3-4.9 32.7-17.8 45-22.5 34.2-13.1 107.4-47.5 135-45z" fill="url(#a)"/><path d="m3761.1 975c26.1 47.5 45.4 98.9 78.7 142.5-.2 97.5.4 195 0 292.5-217-164.8-139.5-287.2-153.7-513.7 53.4 4.8 52.6 38.1 75 78.7z" fill="url(#b)"/><path d="m3506.1 963.8c-134.7 72.8-222.7 201.7-311.2 322.5-75.4-.2-206.6 84-281.2 123.7-96.4 2-193.7 5.6-288.7 22.5-81.6-20.4-162-48.1-243.7-67.5-34.2-8.1-70.4-16.5-105-22.5-16.7-2.9-40.6 1-56.2-11.2 36.2-2.9 303.8-99.1 391.8-123.7 151.4-42.4 307.4-71.6 459.3-112.5 40-10.8 80.1-22.5 120-33.7 66-18.6 133.7-34.8 198.7-56.2 18.7-6.2 37.8-12.2 56.2-18.7 20.1-7.1 39.9-15.2 60-22.5z" fill="url(#c)"/><path d="m2913.7 1410c-24.9 13.3-87.8 60.3-112.5 63.7-17.4 2.4-145-33.5-176.2-41.2 95-16.9 192.3-20.5 288.7-22.5z" fill="#e07274"/><path d="m86.4 1027.5c-1.6 11.8.9 15.3 9.4 22.5 22.3 19.1 223.2 161.1 258.7 183.7 100.4 64 208.2 116.4 313.1 172.5-9.8 3.2-19.8 7.9-30 11.2-97.7 32.4-194.7 70.4-288.7 112.5-116.2 10.3-232.3 31.9-348.7 41.2-1.5-186.2.2-372.5 0-558.7 29.6-.4 57.6 9.6 86.2 15z" fill="url(#d)"/><path d="m247.7 1053.8c56.9 11.7 301.4 67.4 341.2 78.7 126.1 35.8 310.9 122.4 438.7 172.5-112.1 30.1-251.7 66.2-360 101.2-104.8-56.1-212.7-108.4-313.1-172.5-35.6-22.7-236.4-164.6-258.7-183.7-8.5-7.2-11-10.7-9.4-22.5 49.7 9.4 98.6 19.9 148.1 30 5 1 6.2-5.2 13.1-3.7z" fill="#022a37"/><path d="m1620 1170c33.8 3.6 37.6 10.8 67.5 22.5 98.8 38.5 202.1 97.6 315 123.7-121.9 20.8-245.3 33.7-367.5 52.5-81.5-58-142.6-172.6-153.7-176.2 5-5.7 7.8-22 16.9-26.2 5.5-2.6 109 2.4 121.9 3.7z" fill="#022a37"/><path d="m1635 1368.8c-68.8 10.6-139 20.1-206.2 35.6q1.9 6.6 3.7 13.1c-52.2 7.2-105 11.6-157.5 18.7-94.9 12.9-190.2 27.2-285 41.2-54 8-121 32.6-129.4 33.7-2.1.3-10.6-7.1-41.2-3.7-172.5 19.1-247 4.8-369.3 11.2l187.5-75c228.9-82 468.1-128.2 701.2-195 25-7.2 121.2-34 133.1-41.2 15-9.1 8.1-13.6 9.4-15 11.2 3.7 72.3 118.3 153.7 176.2z" fill="url(#e)"/><path d="m637.6 1443.8-187.5 75c-27.3 1.4-68 8.3-101.2 11.2 94-42.1 191-80.1 288.7-112.5 26.5 12.7 8.1 7.4 0 26.2z" fill="#eda27c"/><path d="m1327.6 1230c8.6 7 20.9 4.6 11.2 18.7-233.1 66.8-472.3 113-701.2 195 8.1-18.8 26.5-13.6 0-26.2 10.1-3.4 20.2-8.1 30-11.2 108.3-35.1 247.9-71.1 360-101.2 99.5-26.8 199.6-51.6 300-75z" fill="#e5967e"/><path d="m1481.3 1192.5c-1.2 1.4 5.6 5.9-9.4 15-11.9 7.2-108.1 34.1-133.1 41.2 9.7-14.1-2.6-11.7-11.2-18.7 38.6-9 77.6-22.5 116.2-30 12-2.3 31.4-9.5 37.5-7.5z" fill="#ba807a"/><path d="m3194.9 1286.3c19 0 227.4 28.4 249.4 33.7 89.5 22 177.3 104.3 395.6 97.5-.4 102.5.3 205 0 307.5-103.7.3-207.5-.5-311.2 0-195.4-81.6-394-153.3-598.1-210-20-5.6-67.5-1-35.6-16.9 0-6.9-99.3-3.1-93.7-24.4 24.7-3.4 87.6-50.5 112.5-63.7 74.6-39.7 205.8-124 281.2-123.7z" fill="url(#f)"/><path d="m2073.8 1725c-306.2.1-612.4.2-918.7 0 11.2-29.9-59-29.2-88.1-37.5-13.8-3.9-45.5-19.6-60-22.5-74.5-14.9-116.5-6.5-123.7-7.5-24.8-3.5-173.8-62.1-270-78.7-2.8-.5-19.6 12.3-52.5-11.2-76.9 4.6-155.9-5.9-232.5-3.7-13.4.4-47.7 10.7-60 11.2-85.1 3.8-178.8 9.1-268.1 18.7 0-7.5 0-15 0-22.5 116.5-9.3 232.5-30.9 348.7-41.2 33.3-3 73.9-9.8 101.2-11.2 122.4-6.5 196.8 7.9 369.3-11.2 30.7-3.4 39.2 4 41.2 3.7 8.3-1.2 75.4-25.8 129.4-33.7 10.6 31.1 40.4 7.7 43.1 7.5 58.3-4.2 140.4-12.3 196.9-22.5 10.2 10.8 113.1 9.9 148.1 7.5 42.5-3 118.7-22.8 157.5-26.2 62-5.5 125.5-2 187.5-7.5 19.7-1.7 42.3-9.6 61.9-11.2 76-6.5 152.6-10.7 228.7-16.9-26.4-2.2-45.9 26.3-65.6 31.9-32.9 9.2-66.4-2.6-90 0-3.6.4-35.5 24-63.7 11.2q-.9 4.7-1.9 9.4c50 13.3 57.4 36.6 69.4 39.4 82.8 18.9 61.4-82.5 97.5 26.2 68.3-59.9 21 54.9 84.4 61.9-40.7 36.4-10.6 30.5 0 63.7.5 1.6-11.8 3.9 0 30 8.3 18.3 29.3 19.7 30 43.1z" fill="#252936"/><path d="m2625 1432.5c31.2 7.8 158.8 43.6 176.2 41.2-5.5 21.3 93.8 17.4 93.7 24.4-31.9 15.8 15.6 11.3 35.6 16.9 204.1 56.7 402.6 128.4 598.1 210-376.2 1.6-752.5-.2-1128.7 0 8.4-46.1-22.3-64.9-22.5-103.1 0-9.9 11.2-14.1 11.2-15 0-7.7-10.8-53.8-7.5-60 .9-1.7 15.9-1.1 18.7-15 .7-3.5-10.2-53.4-7.5-71.2.3-2.1 11-9.3 11.2-11.2 4.8-40.8 18.7-61.8-22.5-84.4 81.8 19.4 162.1 47.1 243.7 67.5z" fill="#022a37"/><path d="m2381.2 1365c41.2 22.6 27.3 43.6 22.5 84.4-.2 2-10.9 9.2-11.2 11.2-2.7 17.8 8.2 67.7 7.5 71.2-2.9 13.9-17.9 13.3-18.7 15-3.3 6.2 7.5 52.3 7.5 60 0 .9-11.3 5.1-11.2 15 .2 38.2 30.9 57 22.5 103.1-108.7 0-217.5 0-326.2 0-.7-23.4-21.7-24.9-30-43.1-11.8-26 .5-28.4 0-30-10.6-33.2-40.7-27.3 0-63.7-63.4-7-16.1-121.7-84.4-61.9-36.1-108.8-14.7-7.4-97.5-26.2-12-2.7-19.4-26.1-69.4-39.4q.9-4.7 1.9-9.4c28.2 12.8 60.1-10.8 63.7-11.2 23.6-2.6 57 9.2 90 0 19.7-5.5 39.2-34.1 65.6-31.9-76.1 6.2-152.7 10.4-228.7 16.9 36.9-5.1 77.7-5.7 114.4-11.2 4.3-.6 51.1-18.1 84.4-22.5 83-10.9 283.1-14.6 292.5-48.7 34.6 6 70.8 14.4 105 22.5z" fill="#022a37"/><path d="m1155.1 1725c-385-.3-769.9.2-1154.9 0-.4-43.7.5-87.5 0-131.2 89.3-9.7 183-14.9 268.1-18.7 12.3-.6 46.6-10.9 60-11.2 76.6-2.1 155.6 8.4 232.5 3.7 32.9 23.5 49.7 10.8 52.5 11.2 96.1 16.7 245.1 75.3 270 78.7 7.3 1 49.2-7.4 123.7 7.5 14.5 2.9 46.2 18.6 60 22.5 29.1 8.3 99.3 7.6 88.1 37.5z" fill="#1b1422"/><path d="m2216.2 1331.3h3.7c15.7 12.3 39.5 8.4 56.2 11.2-9.4 34.1-209.5 37.8-292.5 48.7-49.9 5.7-133.9 10.5-178.1 18.7-23.1 4.3-66.5 21.3-20.6 15-19.6 1.7-42.2 9.5-61.9 11.2-62 5.5-125.5 2-187.5 7.5-38.8 3.5-114.9 23.3-157.5 26.2-35 2.4-138 3.3-148.1-7.5 18.9-3.4 75.2-15.2 33.7-20.6q5.6-2.8 11.2-5.6c52.5-7.2 105.3-11.6 157.5-18.7 86.4-11.9 174-19 260.6-30 92-11.7 330-58.7 395.6-56.2 3.5.1-14.2 12.8 65.6 3.7 1-.1 3.6-10.4 16.9-11.2 12.5-.8 13.4 9.2 45 7.5z" fill="#30434e"/><path d="m1275.1 1436.3q-5.6 2.8-11.2 5.6c41.4 5.5-14.8 17.2-33.7 20.6-56.4 10.2-138.6 18.3-196.9 22.5-2.7.2-32.5 23.6-43.1-7.5 94.7-14 190.1-28.3 285-41.2z" fill="#252936"/><path d="m1983.8 1391.3c-33.3 4.4-80.1 21.9-84.4 22.5-36.7 5.5-77.4 6.2-114.4 11.2-45.9 6.3-2.5-10.7 20.6-15 44.2-8.3 128.2-13 178.1-18.7z" fill="#252936"/><path d="m2077.5 1308.8c-1.4 8.6 2.9 8.2 11.2 7.5v15c-65.6-2.4-303.6 44.6-395.6 56.2-86.6 11-174.2 18.1-260.6 30q-1.9-6.6-3.7-13.1c67.3-15.6 137.4-25.1 206.2-35.6 122.2-18.8 245.6-31.7 367.5-52.5 23.3-4 66.8-5.3 75-7.5z" fill="#6e6367"/><path d="m2246.2 1301.3c-66.1 13.5-90.3 3.5-75 22.5-13.3.9-15.9 11.1-16.9 11.2-79.9 9.1-62.2-3.6-65.6-3.7v-15c52.4-4.5 135.8-61.5 157.5-15z" fill="#5c5c60"/><path d="m817.6 866.3c-.1 14.5-73.8 119.3-56.2 172.5-30.7 14.3-114.4 71.8-172.5 93.7-39.8-11.3-284.4-67-341.2-78.7 8.9-3 18.5-11.8 26.2-15 32.9-13.6 64.9-26.9 97.5-41.2 70.3-30.9 101.4-39.6 165-63.7 1.6-.6-5.1 7.5 33.7-7.5 48-18.6 89.1-49.4 133.1-75 13.3 1-1.4 10-13.1 30-1.1 1.8-13.6 7.2-15 20.6-1.9 18.4 29.4 32 28.1 58.1 8.6 3.7 42.1-42.9 50.6-52.5 17.2-19.5 31.9-40.6 48.7-60 8.9-3.4 15 15.6 15 18.7z" fill="url(#g)"/><path d="m3382.4 453.8c2.9 28.8 37.3 35.2 41.2 46.9 2.1 6.3-1.5 61.8 18.7 131.2 6.8 23.2 48.1 121.2 45 71.2-1.9-31-64.1-142.2-41.2-223.1 3 0 19.7-8.2 26.2-11.2 9.5 10.2 25.8 18.4 37.5 26.2 1.1 30.3 12.7 56.8 28.1 82.5 17.2 2.4-43.7-98.5 9.4-52.5 62.1-25.4 105.3 43.9 228.7 90-20.8 1.5 15.3 78.2 26.2 129.4 8.2 38 30.9 130.3-7.5 78.7-23.7-31.8-106.8-262.8-133.1-260.6-17.6 1.5 45.9 118.3 50.6 136.9.7 2.7-1 49.2 0 56.2.4 3 7 .7 7.5 3.7 6.8 42.5 14.7 68-7.5 45-40.1-96.1-110.2-179.8-129.4-283.1-34.1-25.7 31.5 164.6 28.1 185.6-.2 1.3-14.2 21.3-16.9 20.6-63.1-138.6-69.3-95.9-9.4 31.9-11.1 23.4-9.7-28.8-35.6 5.6-65.3-136.2-25.7-34.6-67.5-7.5-34.2-43.2 32.7 59.9 9.4 82.5-53.6-117-21.4-97.6-26.2-118.1-1.7-7.5-87.4-96.8-90-103.1-5.9-14.4-18.2-166.7-22.5-174.4-4.9-8.8-24.1-4.4-30-13.1 38.5.8 36.6 13.3 60 22.5z" fill="#121922"/><path d="m3547.4 525.1c-53.1-46 7.8 54.9-9.4 52.5-15.5-25.7-27-52.2-28.1-82.5 2.1 1.4 17.5-2.1 37.5 30z" fill="#121922"/><path d="m2973.7 363.8c15.9 15.1 34 18 37.5 24.4 2.3 4.2-.3 33.9 26.2 90 51.6 109.1 105.6 156.7 41.2-3.7 18-26.7 41.5 69.1 56.2 97.5 20.4 39.1 88.4 153.9 116.2 200.6 1.2 2-2.1 8.8 1.9 11.2 6.1-11.1-1.8-10.7-1.9-11.2-1-8.1-10.4-74.1-5.6-75q15.9 36.6 31.9 73.1c28.2 18-13.4-89.5-5.6-103.1 1-1.8 20.8 10 11.2-30 16.7-10.6 60.2 101.8 69.4 84.4 6.8-13-107.7-167.7-69.4-174.4q59.1 105.9 118.1 211.9c16.5 17.2 6.5-41.9 33.7-22.5-20.2-38.3-45.4-73.5-67.5-110.6l7.5-7.5c2.6 6.3 88.2 95.7 90 103.1 4.8 20.5-27.4 1.1 26.2 118.1 11.2 24.5 42.5 79.2 60 101.2-12.3 4.7-31.7 17.6-45 22.5-20 7.3-39.9 15.4-60 22.5-29.7-5.9-85.9-74.8-91.9-75-7.6-.2-6.6 10.8-11.2 11.2-4.5.4-66.8-42.2-76.9-48.7-25.9-16.9-49.7-38.2-75-56.2-27.8-19.8-48.9-47.3-82.5-60-9.6-3.6-4.3-4.2-26.2-7.5-92.4-14-107.9 74.5-114.4 78.7-7.4 4.8-84.7 11.5-86.2 33.7-96.2-18.2-77.5-34.3-86.2-41.2-82.5-66.1-52.7-49.8-106.9-144.4-71.3-2.2-80.4-43.9-116.2-73.1q5.6-7.5 11.2-15c26.3 27 53.2 39.1 41.2 18.7-36.9-97.6 83.3 79.3 97.5 54.4q-8.4-17.8-16.9-35.6c102.3 112.6 19.6 9.7-13.1-76.9-11.9-31.5-16-50.2-18.7-82.5-.2-2.9-7.3-.9-7.5-3.7-5.7-97.9 21.2 57.5 30 75 4.7 9.3 50.7 58.4 63.7 67.5q-2.8-117.2-5.6-234.4c28 27.3 12.2 65.1 16.9 99.4 7.2 52.6 20.8 105.2 30 157.5 58.7 97.3 71.6 156.4 52.5-1.9q2.8 3.7 5.6 7.5c4.3-111.2 48.9 20.5 86.2 56.2 5.1-2.3-21.9-100.8-24.4-108.7-8.7-12.6 5.1-8.4 15 5.6 15.3 21.7 50.4 109.2 67.5 142.5h7.5c7-13.3-47.5-201.4-63.7-228.7q4.7-2.8 9.4-5.6c34.1 74 71.6 178.8 133.1 230.6-38.8-121.6-68.9-247.8-127.5-360l11.2-1.9z" fill="url(#h)"/><path d="m3776.1 615.1c20.5 7.7 41.6 16.9 63.7 18.7-.1 128.7.2 257.5 0 386.2-27-12.2-58.7-52.6-78.7-45-22.4-40.7-21.6-73.9-75-78.7-27.6-2.5-100.7 31.9-135 45-17.5-22.1-48.8-76.7-60-101.2 23.3-22.6-43.6-125.7-9.4-82.5 41.7-27.1 2.2-128.7 67.5 7.5 26-34.4 24.5 17.8 35.6-5.6-60-127.8-53.8-170.5 9.4-31.9 2.7.6 16.7-19.3 16.9-20.6 3.4-21-62.2-211.3-28.1-185.6 19.2 103.3 89.3 187 129.4 283.1 22.2 23 14.3-2.5 7.5-45-.5-3-7.1-.7-7.5-3.7-1-7 .7-53.5 0-56.2-4.7-18.6-68.2-135.4-50.6-136.9 26.3-2.2 109.4 228.8 133.1 260.6 38.4 51.6 15.7-40.8 7.5-78.7-11-51.2-47.1-127.9-26.2-129.4z" fill="#022a37"/><path d="m3721.7 735.1c12.9-8.4 114.3 148.1 69.4 151.9q-34.7-75.9-69.4-151.9z" fill="#121922"/><path d="m3168.7 450.1c-53.9 6.3 30.2 12.7 69.4 127.5q24.4-39.4 48.7-78.7c36 36.9 54.9 84.4 80.6 127.5 22.1 37.1 47.3 72.3 67.5 110.6-27.2-19.4-17.3 39.7-33.7 22.5q-59.1-105.9-118.1-211.9c-38.3 6.6 76.2 161.3 69.4 174.4-9.1 17.4-52.6-94.9-69.4-84.4 9.5 40-10.2 28.2-11.2 30-7.8 13.6 33.8 121.1 5.6 103.1q-15.9-36.6-31.9-73.1c-4.8.9 4.7 66.9 5.6 75-27.8-46.7-95.9-161.5-116.2-200.6-14.8-28.4-38.3-124.2-56.2-97.5 64.4 160.4 10.3 112.8-41.2 3.7-26.6-56.1-24-85.8-26.2-90-3.5-6.4-21.6-9.3-37.5-24.4 100.3 53.5 64.4 19.3 84.4 18.7 6.5-.2 50.2 40.9 110.6 67.5z" fill="#121922"/><path d="m1050.1 693.8c-4.4 7.5-11.2 24.8-15 33.7-11.9 27.8-10.4 39.3-11.2 41.2-13.1 31-26.4 63.7-41.2 93.7-14.9 6.9-23.8 22.7-33.7 0 16.9-31.1 33.8-64.9 35.6-101.2-34 66-60.1 134-108.7 191.2-23.6 3.5-7-40.8-16.9-82.5 8.1-16.6 24.2-51.1 18.7-63.7 7.3-12.1 15.8-13.8 0-18.7 56-34.1 113.3-65.5 172.5-93.7z" fill="#ba807a"/><path d="m3322.4 431.3c5.9 8.7 25.1 4.3 30 13.1 4.3 7.7 16.6 160 22.5 174.4l-7.5 7.5c-25.7-43.1-44.6-90.6-80.6-127.5q-24.4 39.4-48.7 78.7c-39.2-114.8-123.3-121.2-69.4-127.5 10.5 4.6 41.1 22.6 46.9 22.5 13.6-.2 75.2-41.9 106.9-41.2z" fill="#022a37"/><path d="m3446.1 480.1c-22.9 81 39.3 192.1 41.2 223.1 3.1 50-38.2-48-45-71.2-20.3-69.4-16.6-124.9-18.7-131.2-3.9-11.6-38.3-18.1-41.2-46.9 16.9 6.6 48.5 25.9 63.7 26.2z" fill="#022a37"/><path d="m753.9 907.6c-8.5 9.6-42 56.2-50.6 52.5 1.3-26.1-30-39.7-28.1-58.1 1.4-13.4 13.9-18.8 15-20.6 24.7 9 49.6-44.9 67.5-13.1-44.7 34.5 14.7 2.6-22.5 37.5q9.4.9 18.7 1.9z" fill="#ba807a"/><path d="m877.6 787.6c15.8 4.9 7.3 6.7 0 18.7-9.2 15.1-24.2 32.9-37.5 45l-30-15c40.3-45.9 26-23.5 67.5-48.7z" fill="#be978f"/><path d="m840.1 851.3c-6 5.4-5.8 11.4-22.5 15 0-3.2-6.1-22.1-15-18.7 2.6-3 4.9-8.3 7.5-11.2l30 15z" fill="#a4777b"/><path d="m783.9 1027.5c16.8 1.1 224 158.8 256.9 183.7 16.3-8.2 33.6-16.2 50.6-22.5 12-4.4 22.2-9.9 33.7-15 12.2-5.3 25.5-9.3 37.5-15 25.3-12 17.7-14.5 18.7-15 2.9-1.3 13.1.9 18.7 0-15.1 12-16.7 27.2-33.7 35.6-6.3 24.3 74.8 40.1 3.7 52.5-3.6 5.4 47.9 16.9 50.6 16.9 14.6-.3 179.2-52.8 223.1-48.7-38.7 7.5-77.7 21-116.2 30-100.4 23.3-200.4 48.2-300 75-127.8-50.1-312.6-136.7-438.7-172.5 58.1-21.9 141.8-79.5 172.5-93.7 10.5-4.9 16.7-11.1 18.7-11.2h3.7z" fill="#094151"/><path d="m858.9 870.1c-27.6 56.4-84.4 139.8-86.2 148.1-1.7 7.7 7.3 3.6 7.5 9.4-2 .2-8.2 6.4-18.7 11.2-17.6-53.1 56.1-158 56.2-172.5 16.7-3.6 16.5-9.6 22.5-15 13.3-12.1 28.3-29.9 37.5-45 5.5 12.7-10.6 47.1-18.7 63.7z" fill="#094151"/><path d="m2216.2 1331.3c-31.6 1.7-32.5-8.3-45-7.5-15.4-19 8.9-9 75-22.5 7.9-1.6 122.1-33.1 110.6-18.7q-70.3 24.4-140.6 48.7z" fill="#30434e"/><path d="m3191.2 1061.3c-39.9 11.3-79.9 23-120 33.7-1.8-4.9 4.7-9.8 7.5-11.2 7.9-4 24-2.2 26.2-9.4 2.8-9-63.2-96.9-33.7-103.1 32.2 39 82.8 54.1 120 90z" fill="#022a37"/><path d="m3446.1 986.3c-18.5 6.5-37.6 12.6-56.2 18.7v-7.5c2.7-.9 14.4-2.9 15-5.6-44.3-42.2-97.8-73.4-138.7-118.1 10.1 6.6 72.3 49.2 76.9 48.7 4.7-.5 3.7-11.4 11.2-11.2 6 .2 62.1 69.1 91.9 75z" fill="#022a37"/><path d="m2572.5 603.8c35.8 29.2 45 70.9 116.2 73.1 54.2 94.6 24.4 78.3 106.9 144.4 8.7 7-10 23 86.2 41.2 1.6-22.3 78.9-29 86.2-33.7 6.5-4.2 21.9-92.8 114.4-78.7q2.8 41.2 5.6 82.5-22.5-37.5-45-75-15.9 25.3-31.9 50.6c39.5 94.3 74.3 143.7-13.1 31.9-62.3 74.7-.6 91.1 0 18.7 23.8 31.4 51 85.7 73.1 112.5-29.4 6.2 36.5 94.1 33.7 103.1-2.2 7.2-18.4 5.4-26.2 9.4-49.8-94.9-47.4-37-60-50.6-12.6-13.7 7.7-119.4-56.2-93.7 1.5 11.8 32.6 100.8 16.9 103.1-53.2-76.8.1-130-127.5-168.7-18.6 11.8 103.8 133.5 13.1 84.4-15.2-41.1-70-152.1-73.1-73.1q-31.9-41.2-63.7-82.5c-18.6.6 21.9 65.5 15 90-104.3-101-74.3-196.1-90-202.5-32.6-13.4 19.4 175.1 11.2 180q-22.5-31.9-45-63.7c-11.8.3 7.1 64.7-50.6-20.6 52 27.8-58-88.5-82.5-146.2-11.3-13.4-11.8-10.8-22.5 1.9 13.5-36.4-17.8-3.9-22.5-20.6q22.5-36.6 45-73.1c32.7 9.6 58.5 33.6 86.2 56.2z" fill="#121922"/><path d="m3191.2 817.6c25.3 18 49.1 39.3 75 56.2 41 44.8 94.5 75.9 138.7 118.1-.6 2.7-12.3 4.7-15 5.6-12.7 4.5-108.6 31.3-114.4 30-9.1-2.1-60.4-69.8-69.4-82.5 11.2-34.9-46.9-123.5-15-127.5z" fill="#022a37"/><path d="m2561.2 555.1c4.2 4.5 14.9 25.9 22.5 33.7q-5.6 7.5-11.2 15c-27.8-22.6-53.5-46.6-86.2-56.2-8.5-2.5-16.7-8.5-26.2-7.5 10.8-21.3-27.3-41.9 26.2-35.6q-11.2-19.7-22.5-39.4c1.1-.8 7.2-3.4 7.5-3.7 30.1 31.1 60.6 62 90 93.7z" fill="#022a37"/><path d="m3191.2 817.6c-31.9 4 26.2 92.6 15 127.5-40.9-58.2-69.8-122.2-97.5-187.5 33.5 12.6 54.7 40.2 82.5 60z" fill="#022a37"/><path d="m3251.1 772.6c0 .6 7.9.1 1.9 11.2-3.9-2.4-.7-9.3-1.9-11.2z" fill="#121922"/><path d="m2422.5 11.4c-4.4 6.6-9.4 25.5-15 37.5-9.7 20.8-14 39.3-15 41.2-14.8 28.9-54.5 86.8-56.2 91.9-1.4 4.2 6 7.2 3.7 15-11.2 39.2-25.4 71 3.7 106.9-22.9 49.1-4.4 51.6-7.5 73.1-.6 4.2-16.1 27.8-18.7 37.5-5.1 18.3 6 26.3-7.5 46.9-2.6 3.9-16.1 8.2-18.7 13.1-44.4 82.1-27.3 77.1-7.5 95.6-16.3 12.8-47.9 4.4-58.1 7.5-11.3 3.4-113.8 143.4-151.9 180 59.9-104.4 142.6-192.2 206.2-294.3-51.8 32.9-85.8 93.7-138.7 121.9 5.9-8 12.9-14.4 18.7-22.5 11.6-15.9 136-176.1 121.9-183.7-47.7 44.7-87.5 64.9-121.9 123.7-11.2 19.2-13.3 46.1-33.7 60 19.5-43.7 30.9-90.4 63.7-127.5 6.1-6.9 58.2-46 76.9-63.7 88.5-84.1-69.9 29.8-93.7 37.5-27.7 21.3-37.1 40.5-65.6 63.7-1.1-15.8 39-67.4 52.5-82.5 31.1-34.7 99.4-81.6 146.2-170.6q-2.8-2.8-5.6-5.6c-32.2 26.9-126.9 123.2-110.6 90 24.1-42.6 161-193.5 168.7-215.6.5-1.4-15.5-5.5 3.7-22.5-3.2-7.1-15.4 3.2-18.7 5.6-8.1-8.5 78.3-76.6 78.7-60z" fill="#fddfb1"/><path d="m1665 461.3c48.9 96.5 111.4 183.1 168.7 273.7 15.2 24 25.3 51.4 41.2 75-.6.2 4.2 1.7-7.5 11.2 8.5-12.4-35.8-50.9-43.1-45-9.6 13.2 10.3 55.2 9.4 58.1-1.1 3.3-7.2 1.4-7.5 1.9-56.3-96.9-67.8-153.8-97.5-215.6-6.5-13.6-86.6-159.7-75-116.2 3.7 13.8 74.3 138.6 105 264.4q-4.7 3.7-9.4 7.5-54.4-61.9-108.7-123.7c-19.1-3-5.4 38.9-20.6 37.5.6-19.9 10.6-65 11.2-76.9 0-1.2-10.8-3.5-11.2-7.5-.3-2.9 20.6-16.7 26.2-50.6 2.9-17.3-2.2-60.1 3.7-78.7 5.7-17.6 10.8-11.9 15-15z" fill="#122433"/><path d="m1856.3 393.8q5.6 9.4 11.2 18.7c-.5-.1-3.2 7.8-5.6 7.5s-28.3-17-43.1-9.4c15 56.4 82.8 110.6 28.1 163.1-3.3-3-9-6.1-13.1-7.5 3.1-23.6-9.5-26-11.2-30 7-13.5-18.8-99.3-22.5-103.1-25-15.3-17.4 5.2-18.7 5.6-2.1.7-25.3-4.7-33.7 16.9q28.1 47.8 56.2 95.6c-5.6-2.5-11.1-8.2-16.9-11.2-22.5 2.8 64.5 153.1 73.1 168.7-27.9-8.2-17.5 6.3-26.2 26.2-57.3-90.6-119.8-177.2-168.7-273.7 34.6-25.8 60.9-13.5 65.6-15 3.5-1.1 42.1-54.1 48.7-56.2 15.6-5 58.7 9.2 76.9 3.7z" fill="#094151"/><path d="m1552.5 630.1q-20.6 43.1-41.2 86.2c-18.7 13-19.5 26.1-45 11.2 15.9-56.2 9-38.4-22.5-3.7-9.7 10.7-26.9 30.8-15 1.9-7.2-14.1-74.5 64.9-82.5 73.1-1.6 1.7-9.7 5.8-11.2 7.5q-1.9-3.7-3.7-7.5c10.4-34.9 43.2-72.3 41.2-93.7 10.1-7.2 20-15.4 30-22.5 2.3-1.6 12.9-.6 48.7-26.2 35.6-25.5 65.9-56.1 97.5-86.2 9.5-9.1 20-16.1 30-26.2 1 18.3-17.6 57.8-26.2 86.2z" fill="#f6ac1b"/><path d="m2190 303.9h-15c12.3-23.6 87.4-123.2 67.5-123.7 51.3-29.8 72.4-87.7 101.2-108.7 3.3-2.4 15.6-12.7 18.7-5.6-19.2 17-3.3 21.1-3.7 22.5-7.7 22.1-144.6 173-168.7 215.6z" fill="#e88b24"/><path d="m1650 476.3c-6 18.6-.9 61.5-3.7 78.7-13.3-8.4-8 6.5-15 15 8.3-60-38.5 11.6-71.2 63.7-3.7-.4-4.2-4-7.5-3.7 8.7-28.5 27.3-67.9 26.2-86.2 36.6-37.3 64.4-86.5 71.2-67.5z" fill="#fddfb1"/><path d="m1548.8 570.1c-31.6 30.1-61.8 60.7-97.5 86.2-11.9-40.1 2.9-24.6 3.7-26.2 17.1-33.2 24.8-65.9 28.1-67.5s52.9 8.5 65.6 7.5z" fill="#094151"/><path d="m1938.8 401.3c1.6 6.3 21.2 58 16.9 60-8.6 4-55.5-74.1-56.2-30-15.2-5.8-13.6-14.4-31.9-18.7q-5.6-9.4-11.2-18.7c1.9-.6 10.5-11.7 30-26.2 17.7 13.3 25.5 42.1 52.5 33.7z" fill="#4d2b16"/><path d="m1957.5 341.4q-18.7-1.9-37.5-3.7c7.9-7.3 18.6-18.3 26.2-26.2 4 9.9 7.7 20 11.2 30z" fill="#aa6027"/><path d="m2973.7 363.8-11.2 1.9c58.5 112.2 88.7 238.4 127.5 360-61.5-51.8-99-156.6-133.1-230.6q-4.7 2.8-9.4 5.6c16.3 27.3 70.7 215.4 63.7 228.7h-7.5c-17.1-33.3-52.2-120.7-67.5-142.5-9.9-14-23.7-18.3-15-5.6-.4-1.4-10.7 5-18.7-16.9-16.6-45.3-6.3-95.6-41.2-135-13.3 7.6 34.9 109.7 16.9 110.6-4 .2-23.7-51.4-28.1-58.1-3.1-4.8-9 9.2-11.2 3.7-3.5-8.6-4.9-156.8-16.9-185.6-16.2 116.3 15.4 210.9 31.9 326.2 19.1 158.3 6.3 99.2-52.5 1.9-9.2-52.3-22.8-104.9-30-157.5-4.7-34.2 11.2-72.1-16.9-99.4q2.8 117.2 5.6 234.4c-13-9.1-59-58.2-63.7-67.5-8.8-17.5-35.7-172.9-30-75 .2 2.9 7.3.8 7.5 3.7 2.7 32.3 6.8 50.9 18.7 82.5 32.7 86.6 115.4 189.5 13.1 76.9q8.4 17.8 16.9 35.6c-14.2 24.9-134.4-151.9-97.5-54.4-17.7-6.7-67.1-103.8-31.9-78.7 13.5 1-32.6-87.5-22.5-11.2-8.5-16.8-61.4-41-26.2-52.5 34.5 44.3 14.8 7.2 16.9-5.6.2-1.1 12.4-11.5 11.2-18.7-.8-5.3-60.2-43.3-46.9-88.1 55.1 19 35.8 102.6 95.6 65.6-38-69.1-115.2-75.9-127.5-97.5-24.2-81.7 19.1-18.7 46.9 5.6-40.4-162.4 43.6 54.9 63.7 52.5-.2-48.8 8.1-.9 37.5 48.7 50.8-54 6.4-55.6-3.7-123.7 50.1 92.5 48 142.3 99.4 46.9q-52.5-60-105-120c49.7 13 69.8 70.2 90 37.5-2.6-58.1-35.1-90.3-3.7-95.6 13.3 39 34.9 75.7 48.7 114.4 19.2 53.3 30.3 161.3 33.7 26.2-12.4-6.6-70.4-153.5-82.5-140.6.3 0-.9-4.2 3.7-3.7 58.8 35.5 97.8 36.1 136.9 93.7 36.6 15 35.6 36.4 45 45 3.4 3.1 11.3 1.1 69.4 56.2z" fill="#121922"/><path d="m2921.2 581.3c2.5 7.9 29.4 106.4 24.4 108.7-37.3-35.7-81.9-167.5-86.2-56.2q-2.8-3.7-5.6-7.5c-16.5-115.3-48-210-31.9-326.2 12 28.8 13.3 177 16.9 185.6 2.2 5.4 8.1-8.5 11.2-3.7 4.4 6.8 24.1 58.3 28.1 58.1 18-.9-30.1-103-16.9-110.6 34.9 39.4 24.6 89.7 41.2 135 8 21.9 18.3 15.5 18.7 16.9z" fill="#022a37"/><path d="m2718.7 172.6c12.1-12.9 70.1 134 82.5 140.6-3.4 135.1-14.6 27-33.7-26.2-13.9-38.6-35.5-75.4-48.7-114.4z" fill="#022a37"/><path d="m2953 416.3c19.6 15 58.4 32.9 41.2 63.7-4.1 2-50.5-61-41.2-63.7z" fill="#022a37"/><path d="m2463.7 465.1q11.2 19.7 22.5 39.4c-53.6-6.3-15.5 14.3-26.2 35.6-.9 1.9-26.2 21.5-30 26.2-5.7 4.3-10.8 3.4-11.2 3.7-90 6.2-56.2-70.4-108.7-108.7 13.5-20.6 2.4-28.6 7.5-46.9 2.7-9.7 18.1-33.3 18.7-37.5 3.1-21.6-15.4-24 7.5-73.1 3 3.7 65.6 50.2 76.9 56.2-70.3-147.9 109.6 31.9 90 37.5-102.3-79.1-35.7 16.7-48.7 22.5-85-79.2-83-28-15 52.5 10.9-19.7 14.6-5.9 16.9-7.5z" fill="#252936"/><path d="m2714.9 161.4c.5.3 7 7.2 7.5 7.5-4.7-.4-3.5 3.7-3.7 3.7-31.3 5.4 1.2 37.5 3.7 95.6-20.2 32.7-40.3-24.5-90-37.5q52.5 60 105 120c-51.3 95.5-49.3 45.6-99.4-46.9 10.1 68.2 54.6 69.7 3.7 123.7-29.4-49.7-37.7-97.6-37.5-48.7-20.1 2.4-104.1-214.9-63.7-52.5-27.8-24.4-71-87.3-46.9-5.6 12.3 21.6 89.5 28.4 127.5 97.5-59.8 37-40.5-46.6-95.6-65.6-13.4 44.8 46.1 82.8 46.9 88.1 1.1 7.3-11.1 17.7-11.2 18.7-2.1 12.9 17.6 49.9-16.9 5.6-35.2 11.5 17.8 35.7 26.2 52.5-10.1-76.2 36 12.2 22.5 11.2-35.2-25.1 14.2 72 31.9 78.7 12 20.3-14.9 8.3-41.2-18.7-7.6-7.9-18.3-29.2-22.5-33.7 4.3-20.3-77.3-113.2-84.4-112.5-14.5 9.3-3.3 16-5.6 18.7-.3.4-6.4 3-7.5 3.7-2.2 1.6-5.9-12.2-16.9 7.5-68-80.5-70-131.7 15-52.5 13-5.8-53.6-101.6 48.7-22.5 19.6-5.6-160.3-185.4-90-37.5-11.3-6-73.9-52.6-76.9-56.2-29.2-35.8-14.9-67.7-3.7-106.9 2.2-7.8-5.1-10.8-3.7-15 1.7-5.1 41.5-63 56.2-91.9 70.2 120.4 134.4 204.6 52.5 16.9-6.2-14.3-27.4-58.7-37.5-58.1 5.6-12 10.6-30.9 15-37.5.6-.9-1.9-12.7 13.1-11.2 38.8 21.1 49.9 13.9 52.5 15 29 12.2 120.3 88.4 153.7 108.7 21.6 13.1 51.3 24.2 73.1 37.5z" fill="#094151"/><path d="m2392.5 90.1c1-2 5.3-20.4 15-41.2 10-.5 31.3 43.9 37.5 58.1 81.9 187.7 17.7 103.5-52.5-16.9z" fill="#121922"/><path d="m2593.1 138.9c100.9 130.1 21.3 70.2 16.9 76.9 46.9 137.1-20.7 5.5-22.5-7.5-.4-2.6 7.8-1.1 7.5-3.7-2.3-21.3-5.1-44.2-1.9-65.6z" fill="#121922"/><path d="m2561.2 555.1c-29.4-31.8-59.9-62.6-90-93.7 2.3-2.8-8.8-9.5 5.6-18.7 7.1-.7 88.7 92.2 84.4 112.5z" fill="#022a37"/><path d="m982.6 862.6c-19.2 38.8-41.1 49.2-28.1 56.2q29.1-5.6 58.1-11.2c-5 35.8 68 56.7 99.4 82.5 24 19.8 103.1 125.3 110.6 129.4 3.5 1.9 15.7-7.4 18.7 1.9-13.4 8.3-28.5 12.3-41.2 22.5-5.7.9-15.8-1.3-18.7 0-72.6-93.4-180.5-157.2-273.7-221.2 12-17.2 32.1-43.1 41.2-60 9.9 22.7 18.8 6.9 33.7 0z" fill="#964f5a"/><path d="m948.8 862.6c-9.2 16.9-29.3 42.8-41.2 60-2.9 4.2-30.4 35.4-28.1 37.5 101.6 54 193.5 126.6 283.1 198.7-12 5.7-25.3 9.7-37.5 15-27.4-36.5-248.3-190.9-271.9-191.2-9.1-.1-19.9 12.9-24.4 15-14.4 6.7-35.4 17.1-45 30-1.2 0-2.5 0-3.7 0-.2-5.7-9.2-1.7-7.5-9.4 1.9-8.4 58.6-91.7 86.2-148.1 9.9 41.7-6.8 86 16.9 82.5 48.6-57.2 74.8-125.3 108.7-191.2-1.9 36.3-18.7 70.1-35.6 101.2z" fill="#634b59"/><path d="m1035.1 858.8c-1.8 11.8-22 45.4-22.5 48.7q-29.1 5.6-58.1 11.2c-13-7.1 8.9-17.4 28.1-56.2 14.9-30 28.2-62.8 41.2-93.7 12.7.7 14 72.4 11.2 90z" fill="#254e64"/><path d="m1050.1 738.8c-3.4 19.3 5.6 92.3 18.7 105-12.3 13.2-17.4 9.6-33.7 15 2.7-17.6 1.4-89.3-11.2-90 .8-2-.6-13.4 11.2-41.2q7.5 5.6 15 11.2z" fill="#ba807a"/><path d="m1065.1 712.6c.6.9-.6 2.8 0 3.7-13.2-.6-13.4 13.3-15 22.5q-7.5-5.6-15-11.2c3.8-9 10.6-26.2 15-33.7 3.3 6.4 11.8 13.8 15 18.7z" fill="#c5a496"/><path d="m1372.6 705.1c1.9 21.4-30.8 58.8-41.2 93.7-20.4 7.7 24.1-25.1-37.5-37.5 10.6-8.3 28.7-28.6 41.2-37.5 7.1-5 30.5-13.8 37.5-18.7z" fill="#f58126"/><path d="m1293.8 761.3c61.6 12.4 17.1 45.2 37.5 37.5q1.9 3.7 3.7 7.5c-10.5 11.1-87.8 113-97.5 99.4 19.6-66.4-5.9-34.6-9.4-35.6-2.2-.7-6.7-10.2-39.4-18.7 9.4-6.9 17.2-15.3 26.2-22.5 3.1-2.5 5.2-5.6 7.5-7.5 24.4-19.6 46.5-40.7 71.2-60z" fill="#f36f3a"/><path d="m1316.3 585.1c8.2 1.2 38.3 21.6 43.1 22.5 12.4 2.2 18.4-4 24.4-3.7q9.4 39.4 18.7 78.7c-10 7.1-19.9 15.3-30 22.5-6.9 4.9-30.4 13.8-37.5 18.7-28.2-4.1-87.9-110.5-103.1-116.2-.6-.2-10.6 7.8-11.2 7.5-20.2-8.7-15.4-28-43.1-11.2-2.6-3.4-5.6-7.4-7.5-11.2 2.4-1.6 11.7-17.2 20.6-18.7 6.2-1.1 112.6 9.3 125.6 11.2z" fill="#15354a"/><path d="m1166.3 618.8c24.5 33.8 55 64.3 75 101.2q-15.9-16.9-31.9-33.7c-26.8 75.3-8.3 86.9 5.6 120-43.2-29.7-47.9-129.2-78.7-183.7.6-.5 2.5-4.2 11.2-11.2 4.9 9.1 9.7 14.7 18.7 7.5z" fill="#094151"/><path d="m1215.1 806.3c1.5 3.5 1.6 13.9 7.5 15-2.3 1.9-4.4 5-7.5 7.5-.2-7-9.9-2.1-15-3.7-39.8-13-36.7-59.5-45-90-9-33.4-14.9-68.3-26.2-101.2.5-.4 2.2-7.2 7.5-11.2 30.9 54.5 35.5 154.1 78.7 183.7z" fill="#964f5a"/><path d="m1143.8 727.6c1.1 18.7-3 7.1-15 3.7-48.7-13.6-53-41.3-63.7-18.7-3.2-4.9-11.7-12.3-15-18.7 1.1-1.9-3.8-7.7 5.6-18.7 1-1.2 21.2-10.2 28.1-15 22.9 19.9 41 44.1 60 67.5z" fill="#022a37"/><path d="m1155.1 735.1c-2.7-1.4-10.8-7-11.2-7.5-19-23.4-37.1-47.6-60-67.5 14.6-10.2 34.6-18.1 45-26.2 11.4 32.9 17.2 67.8 26.2 101.2z" fill="#516d7c"/><path d="m1170.1 592.6c1.9 3.9 4.9 7.9 7.5 11.2 27.2 35.1 96.6 122.7 63.7 116.2-20-36.9-50.5-67.5-75-101.2-3.6-5-3.6-13.2-11.2-15 7-5.9 7.1-6.1 15-11.2z" fill="#905c68"/><path d="m1166.3 618.8c-9 7.2-13.9 1.6-18.7-7.5 2.2-1.8 4.6-5.1 7.5-7.5 7.7 1.8 7.6 10 11.2 15z" fill="#516d7c"/><path d="m1455.1 630.1c-.8 1.6-15.7-13.8-3.7 26.2-35.8 25.7-46.5 24.6-48.7 26.2q-9.4-39.4-18.7-78.7c32 1.5 41.2-.4 73.1-11.2q-.9 18.7-1.9 37.5z" fill="#4a6f75"/><path d="m1335.1 723.8c-12.6 8.9-30.7 29.2-41.2 37.5-24.7 19.3-46.9 40.4-71.2 60-5.9-1.1-6-11.5-7.5-15-14-33.1-32.4-44.7-5.6-120q15.9 16.9 31.9 33.7c32.9 6.5-36.5-81.1-63.7-116.2 27.7-16.7 22.9 2.5 43.1 11.2.6.3 10.6-7.7 11.2-7.5 15.2 5.8 74.9 112.1 103.1 116.2z" fill="#2a5865"/><path d="m1128.8 731.3c-9.8 8.1 15.6 84.8 18.7 88.1 2.9 3 54.6 26 52.5 5.6 5.1 1.6 14.8-3.3 15 3.7-9.1 7.2-16.9 15.6-26.2 22.5-18.8 13.8-39.2 31-60 41.2-6.1 3-61.8 25.6-63.7 20.6 53.3-55.8 77.9-53 33.7-61.9 11.3-39-13.5-101.3-33.7-135-.6-.9.6-2.9 0-3.7 10.7-22.6 15 5.2 63.7 18.7z" fill="#094151"/><path d="m1155.1 735.1c8.3 30.5 5.2 77 45 90 2.1 20.4-49.6-2.6-52.5-5.6-3.2-3.4-28.5-80-18.7-88.1 12 3.3 16.1 15 15-3.7.4.5 8.5 6.1 11.2 7.5z" fill="#30434e"/><path d="m1091.3 1188.8c-17 6.3-34.3 14.3-50.6 22.5-32.8-24.9-240-182.7-256.9-183.7 9.6-12.9 30.6-23.3 45-30q131.2 95.6 262.5 191.2z" fill="#30434e"/><path d="m1181.3 1143.8c-1.1.5 6.5 3-18.7 15-89.6-72.1-181.5-144.8-283.1-198.7-2.3-2.1 25.2-33.3 28.1-37.5 93.2 64 201.2 127.8 273.7 221.2z" fill="#7e4c59"/><path d="m1125.1 1173.8c-11.5 5.1-21.7 10.6-33.7 15q-131.2-95.6-262.5-191.2c4.4-2.1 15.3-15.1 24.4-15 23.6.3 244.5 154.7 271.9 191.2z" fill="#484854"/><path d="m2377.5 885.1c-1.2 4.1-2.4 7.3-3.7 11.2-3.6 10.7-7 25-7.5 26.2-9.9 23.9-47.8 73-52.5 93.7-13.4 7.5-18.1 26.2-26.2 37.5-9.1 12.7-62.3 71-63.7 76.9-10.6 43.9 37.6 74.9 22.5 95.6-25.9 12.8-159.7 80-168.7 82.5-8.2 2.2-51.7 3.5-75 7.5-112.9-26.2-216.2-85.2-315-123.7 22.2-9.4 37.7-27.2 56.2-41.2 19.5-14.8 37.3-29.8 56.2-45 6.4-5.1 12.3-9.7 18.7-15 2.5-2.1 24.7-14.1 30-18.7q45.9 63.7 91.9 127.5c18.2-10.5 50.7-28.7 65.6-41.2 6.8-5.7 19-22.2 26.2-30 9.5 1.6 13.2-9.7 15-11.2 7.6-6.6 18.2-17.7 22.5-26.2 20.8-41.3 49.2-208.5 75-243.7 5.5-7.5 35.4-24.4 37.5-26.2-11.7 12.2 24.4 56.3 26.2 63.7 3.4 13.6-1.2 80.7 26.2 144.4 16.9 22.8 28.9-27 41.2-50.6 7.8-14.9 14.9-30 22.5-45 33-65.1 62.3-132 99.4-195 12.4-2.8-16.4 131.6-20.6 146.2z" fill="#094151"/><path d="m1706.3 1072.5c6.3 39.6 7.1 47.5 37.5 78.7-18.5 14.1-34 31.8-56.2 41.2-29.9-11.7-33.7-18.9-67.5-22.5 2.5-14.9-28.3-2.9-52.5-9.4 3.2-15.5-33.6-78-33.7-82.5-.2-9.3 46.3-70.5 52.5-84.4 23 14.3 23.5-.8 41.2-26.2 7.2-10.4 20.1-30.4 26.2-41.2 24.3-16.8 32.1 56.9 37.5 76.9 2.1 7.6 18.4 31.8 18.7 33.7 2.5 14.6-5.5 24.8-3.7 35.6z" fill="#2a5865"/><path d="m2456.2 870.1c-16.2 68.2-5.5 55.2-3.7 69.4 2.6 21.6-6.1 42.4 7.5 39.4-3.8 93.7 18.7 78.5-52.5 150-18.3-6-17.3-119.9-15-159.4 1.6-27.1 22.4-98.6 5.6-73.1-20.8-21.4-12.8 9.5-24.4 0 1.3-3.9 2.6-7.1 3.7-11.2 43.5-22.7 55.1-63.5 56.2-112.5 3.2 15.7.8 30 3.7 43.1 1.7 7.7 24.2 37.2 18.7 54.4z" fill="#f1765d"/><path d="m2388.7 1147.5c-24.5 20.5-24.7 20.9-52.5 37.5-1.7-44.5-30.7-132.1-22.5-168.7 4.7-20.8 42.6-69.9 52.5-93.7 2.2 56.6-11 204.5 22.5 225z" fill="#b4525f"/><path d="m2452.5 671.3c-7.1 82.9 37.3 147.5 37.5 155.6.1 4.8-31.9 73.1-33.7 90-.8 7.3 5.1 28.3 3.7 61.9-13.6 3-4.9-17.8-7.5-39.4-1.7-14.2-12.5-1.2 3.7-69.4.7-2.8 20.1-29.5 18.7-54.4-.7-13.5-22.1-54.8-26.2-71.2-14.1-56.6 16.9-87.7-37.5-31.9-29.3 30-51.3 66.9-75 101.2 0-.4-7.7 1.1-7.5-1.9 1-18.1 6.8-64.7 11.2-80.6 2.1-7.6 4.8-15.2 7.5-22.5.9-2.4 20.6-34.1 26.2-45 35.1 12.4 59.4-12.7 73.1-7.5 2.9 1.1-5.9 19 5.6 15z" fill="#fdc591"/><path d="m2306.2 1200c-20.1 10.5-40.5 16.6-60 26.2 15.1-20.7-33.1-51.7-22.5-95.6 1.4-5.8 54.6-64.2 63.7-76.9-1 43.7 39.8 114.7 18.7 146.2z" fill="#5c5c60"/><path d="m2407.5 1128.8c-6.6 6.7-11.3 12.5-18.7 18.7-33.5-20.5-20.3-168.3-22.5-225 .5-1.3 3.9-15.6 7.5-26.2 11.6 9.5 3.5-21.4 24.4 0 16.8-25.5-4 46-5.6 73.1-2.4 39.5-3.3 153.4 15 159.4z" fill="#da5a5f"/><path d="m2486.2 547.6q-22.5 36.6-45 73.1c4.7 16.7 36-15.7 22.5 20.6-6 7.1-10.4 20.6-11.2 30-11.5 4-2.7-13.9-5.6-15-13.8-5.2-38 19.9-73.1 7.5 9.4-18.4 24.7-35.3 22.5-56.2 33.4-34.5 32.1-39.2 33.7-41.2 3.8-4.7 29-24.4 30-26.2 9.5-1 17.8 5 26.2 7.5z" fill="#fddfb1"/><path d="m2336.2 1185c-10.5 6.3-19.7 9.6-30 15 21-31.5-19.8-102.5-18.7-146.2 8.2-11.3 12.8-30 26.2-37.5-8.2 36.7 20.8 124.3 22.5 168.7z" fill="#964f5a"/><path d="m3078.7 1083.8c-2.8 1.4-9.3 6.3-7.5 11.2-151.9 40.9-308 70.1-459.3 112.5-88 24.7-355.6 120.8-391.8 123.7-1.2 0-2.5 0-3.7 0q70.3-24.4 140.6-48.7c11.5-14.4-102.7 17.1-110.6 18.7-21.7-46.5-105.1 10.5-157.5 15-8.4.7-12.7 1.1-11.2-7.5 9.1-2.5 142.8-69.7 168.7-82.5 19.5-9.6 39.9-15.8 60-26.2 10.3-5.4 19.5-8.7 30-15 27.8-16.6 28-17 52.5-37.5 7.5-6.3 12.1-12.1 18.7-18.7 71.2-71.5 48.7-56.3 52.5-150 1.4-33.5-4.6-54.5-3.7-61.9 1.9-16.9 33.9-85.2 33.7-90-.2-8.1-44.6-72.7-37.5-155.6.8-9.4 5.3-22.9 11.2-30 10.7-12.7 11.2-15.3 22.5-1.9 24.5 57.8 134.5 174 82.5 146.2 57.8 85.3 38.8 20.9 50.6 20.6q22.5 31.9 45 63.7c8.2-4.9-43.9-193.3-11.2-180 15.7 6.4-14.3 101.5 90 202.5 6.9-24.5-33.6-89.4-15-90q31.9 41.2 63.7 82.5c3.1-79 58 32 73.1 73.1 90.7 49.1-31.7-72.5-13.1-84.4 127.6 38.8 74.3 91.9 127.5 168.7 15.7-2.3-15.3-91.3-16.9-103.1 63.9-25.7 43.6 80 56.2 93.7 12.5 13.6 10.2-44.2 60 50.6z" fill="url(#i)"/><g fill="#022a37"><path d="m2503.1 873.8c121.8 189.9 109.5 207.3-16.9 13.1q8.4-6.6 16.9-13.1z"/><path d="m2623.1 885.1c5.1-.4 60.2 82.4 52.5 86.2-8.4-4.7-82.8-83.6-52.5-86.2z"/><path d="m2529.3 806.3c11.7 8 84 91.4 71.2 97.5-27.1-29.4-57.8-59-71.2-97.5z"/><path d="m2626.8 832.6q13.1 35.6 26.2 71.2c-8.7-21.1-30.1-51.9-26.2-71.2z"/></g><path d="m3108.7 757.6c27.7 65.3 56.6 129.3 97.5 187.5 8.9 12.7 60.2 80.4 69.4 82.5 5.8 1.3 101.7-25.5 114.4-30v7.5c-65 21.5-132.8 37.7-198.7 56.2-37.2-35.9-87.8-51-120-90-22.1-26.8-49.3-81.1-73.1-112.5-.6 72.3-62.3 56 0-18.7 87.4 111.8 52.7 62.5 13.1-31.9q15.9-25.3 31.9-50.6 22.5 37.5 45 75-2.8-41.2-5.6-82.5c22 3.3 16.7 3.9 26.2 7.5z" fill="#094151"/><path d="m3114.3 825.1c3.9-1.3 41 71.5 33.7 75-10.8-4.3-42.7-72-33.7-75z" fill="#022a37"/><path d="m2156.2 378.8c.1.6 5.5-1.7 3.7 11.2-13.5 15.1-53.6 66.7-52.5 82.5-.8.7-3.4-1.8-18.7 11.2-26.9-81.9-48.9-164.4-63.7-249.4 2.9-21 69 55.4 71.2 60 22 45.7 12.4 171.1 60 84.4z" fill="#022a37"/><path d="m2088.7 555.1c-10.1 19.2-57.3 130-45 65.6-11.5 28.4-26 56-37.5 84.4-14.3 18.4-25.6 39.9-37.5 60-15-11.3-1.4-28.4 3.7-52.5.9-4.4.6-6.8 3.7-11.2 7.1-9.1 51.5-70.5 43.1-75-43.2 32.7-69.8 79.5-99.4 123.7-1-11.6-4.5-21.1-3.7-33.7 21.6-28 33.2-62.3 48.7-93.7 41.3 19.1 108.3-93.1 123.7-67.5z" fill="#924e22"/><path d="m1920 641.3c1.9 6.6-3.6 18.3 3.7 18.7-2.6 10-6.8 44.6-7.5 56.2-.7 12.6 2.7 22.2 3.7 33.7.6 7.2-7.7 11.9-1.9 18.7 37-60.6 55.3-63.9 58.1-67.5-3.2 4.5-2.8 6.8-3.7 11.2-17 11-52.1 92-56.2 95.6-2.5 2.2-34.2-.8-41.2 1.9-15.9-23.6-26-51-41.2-75 8.7-19.9-1.7-34.5 26.2-26.2 17 30.9 21.2 62.1 30 46.9-3.7-30.3 9.9-57.7 3.7-88.1 32.8-9.7 9.1-30.8 18.7-37.5 4.9 12.1 7.3 10.6 7.5 11.2z" fill="#2a5865"/><path d="m2122.5 495.1c-10.5 35.5-21 35.9-33.7 60-15.4-25.6-82.4 86.6-123.7 67.5 2.4-4.8 6.2-33.4 7.5-35.6 6.3-11.1 63.1-59.6 78.7-73.1 36.1 19.7 88.7-78.1 71.2-18.7z" fill="#aa6027"/><path d="m2160 390.1c1.8-12.9-3.6-10.7-3.7-11.2-7.6-34.6 3.1-44.8 18.7-75h15c-16.3 33.2 78.4-63.1 110.6-90q2.8 2.8 5.6 5.6c-46.9 89-115.2 135.9-146.2 170.6z" fill="#cb6f28"/><path d="m2190 435.1c-5.8-35.9-50.5 48.3-67.5 60 17.5-59.3-35.1 38.5-71.2 18.7 3-2.5 5.1-5.4 7.5-7.5 7.3-6.4 15.1-12.3 22.5-18.7.9-.8 6.6-3 7.5-3.7 15.4-13.1 17.9-10.6 18.7-11.2 28.5-23.2 37.9-42.4 65.6-63.7 23.8-7.7 182.2-121.6 93.7-37.5-18.7 17.7-70.8 56.9-76.9 63.7z" fill="#dc7d27"/><path d="m1781.3 438.8c18.7 30.2 27.2 65.3 41.2 97.5 1.8 4 14.4 6.4 11.2 30-9.1-3-20.4-10.7-30-15q-28.1-47.8-56.2-95.6c8.4-21.6 31.6-16.2 33.7-16.9z" fill="#094151"/><path d="m2242.5 180.1c19.9.5-55.2 100.1-67.5 123.7-15.7 30.2-26.4 40.4-18.7 75-47.6 86.8-38-38.6-60-84.4-2.2-4.6-68.3-81-71.2-60 14.8 84.9 36.8 167.5 63.7 249.4-.9.8-6.6 3-7.5 3.7q-14.1-13.1-28.1-26.2 2.8 22.5 5.6 45c-2.4 2.1-4.5 5-7.5 7.5-15.6 13.5-72.4 62-78.7 73.1-1.3 2.3-5.1 30.8-7.5 35.6-15.5 31.4-27.1 65.7-48.7 93.7.7-11.7 4.9-46.3 7.5-56.2 4-15.8 42.9-70.1-3.7-18.7-.2-.6-2.6.9-7.5-11.2-11.3-28.1-25.6-55-33.7-84.4-51 25.1 7.3 83.8 15 121.9 6.1 30.5-7.4 57.8-3.7 88.1-8.8 15.3-13-15.9-30-46.9-8.6-15.6-95.6-165.9-73.1-168.7 5.8 3 11.3 8.8 16.9 11.2 9.6 4.3 20.9 12 30 15 4.2 1.4 9.8 4.5 13.1 7.5 54.7-52.5-13.1-106.7-28.1-163.1 14.9-7.7 40.7 9 43.1 9.4s5.2-7.6 5.6-7.5c18.3 4.4 16.7 12.9 31.9 18.7.8-44.1 47.6 34 56.2 30 4.4-2-15.3-53.7-16.9-60-6.7-26.6-17-50.4-1.9-45 54.4 90.2 51.4 72.9 20.6-15-3.5-10-7.3-20.1-11.2-30 89.4-92.9 49.5-123 159.4-71.2 75.3-61.7 83.4-34.4 97.5-37.5 1.7-.4 15.6-16.9 26.2-22.5 2.5-1.3 10.9 1.3 13.1 0z" fill="#121922"/><path d="m1957.5 341.4c30.8 87.9 33.8 105.2-20.6 15-15.1-5.4-4.8 18.4 1.9 45-27 8.4-34.8-20.4-52.5-33.7 10.1-7.5 24-20.9 33.7-30q18.7 1.9 37.5 3.7z" fill="#723b18"/><path d="m1912.5 630.1c-9.7 6.7 14 27.8-18.7 37.5-7.7-38.1-66-96.8-15-121.9 8.1 29.4 22.4 56.3 33.7 84.4z" fill="#094151"/><path d="m1929.4 506.3q21.6 25.3 43.1 50.6c-22.4 44.8-47.1-48.4-43.1-50.6z" fill="#094151"/><path d="m1989.4 480.1c11.7 31.7 15.3 35.5-3.7 60-30.3-36.4.2-61.5 3.7-60z" fill="#022a37"/><path d="m2081.2 487.6c-7.4 6.4-15.2 12.3-22.5 18.7q-2.8-22.5-5.6-45 14.1 13.1 28.1 26.2z" fill="#094151"/><path d="m1923.8 660.1c-7.4-.4-1.9-12.2-3.7-18.7 46.6-51.3 7.8 2.9 3.7 18.7z" fill="#603f1b"/><path d="m2310 592.6q-1.9 31.9-3.7 63.7c-56.3 46.2-175.9 168.8-39.4 41.2 2.7 20.6 13.6 7.3 28.1 7.5 17.1.2 36-2.8 52.5 3.7-2.7 7.3-5.4 14.9-7.5 22.5-17.1-1.9-14.2 3.7-15 3.7-90 11.2-116.2 54.1-183.7 101.2-27.3 19.1-48.6 44.1-101.2 71.2-10.3 5.3-34.4 14.1-52.5 22.5-1.1.5-8.9 1.2-22.5 7.5 13.9-32.6 59.7-102.9 67.5-125.6 3-8.7-4.3-15.5-3.7-16.9 17.3-15.4 26-19.2 45-37.5 38-36.6 140.6-176.6 151.9-180 10.2-3.1 41.9 5.3 58.1-7.5 3.4 3.1 24.8 21.6 26.2 22.5z" fill="url(#j)"/><path d="m2418.7 570.1c-18.9 14.5-37.1 30.6-56.2 45-16.9-9.3-35.7-12.5-52.5-22.5-1.5-.9-22.9-19.4-26.2-22.5-19.8-18.5-36.9-13.6 7.5-95.6 2.7-4.9 16.2-9.2 18.7-13.1 52.5 38.3 18.7 115 108.7 108.7z" fill="#094151"/><path d="m2073.8 757.6c-19 18.3-27.7 22.1-45 37.5.7-1.8-.7-5.6 0-7.5 4.4-12.6 16.2-47 18.7-52.5 14-29.5 14.2-21.4 15-22.5q1.9 2.8 3.7 5.6c3.3-4.8 2.1-12.3 3.7-16.9 30.6-31.1 55.6-22.7 63.7-69.4-29 7.3 2-11.4-11.2-28.1 7.7-10.8 12.7-10.5 18.7-18.7 53-28.2 86.9-88.9 138.7-121.9-63.6 102.1-146.3 189.9-206.2 294.3z" fill="#e88b24"/><path d="m2190 435.1c-32.8 37.1-44.2 83.7-63.7 127.5-7.2 16.1-34.9 48.9-18.7 52.5-30.5 28.8-55.3 62.2-82.5 93.7-5.3 6.1-14.7 13.6-22.5 22.5-7.9-1.7 1-19.6 3.7-26.2 11.5-28.3 26-56 37.5-84.4-12.3 64.4 34.9-46.4 45-65.6 12.8-24.1 23.3-24.5 33.7-60 17-11.7 61.7-95.9 67.5-60z" fill="#272122"/><path d="m2160 562.6c-3.8-37 21.2-58.9 0-60 34.4-58.9 74.2-79.1 121.9-123.7 14.2 7.7-110.3 167.8-121.9 183.7z" fill="#cb6f28"/><path d="m2160 562.6c-5.9 8.1-12.8 14.5-18.7 22.5-6.1 8.2-11 7.9-18.7 18.7-.5.6-5.7 3-11.2 11.2h-3.7c-16.1-3.6 11.5-36.3 18.7-52.5 20.5-13.9 22.5-40.7 33.7-60 21.2 1.1-3.8 23 0 60z" fill="#cb6f28"/><path d="m1968.8 765.1c-3.7 6.3-9.6 15.9-3.7 15-18.7 20.5-42 35.7-60 54.4-5 5.2-14.9 45.4-101.2 99.4-1.3-2.9-27.6-52.2-30-56.2 14.7-23.1 41.1-20.8 52.5-41.2 33.7 58 14.2 17.8 26.2-5.6.4-.8 8.4-3.9 15-9.4 11.7-9.6 6.9-11 7.5-11.2 7-2.7 38.7.3 41.2-1.9 4.2-3.6 39.2-84.6 56.2-95.6-5.1 24.1-18.7 41.2-3.7 52.5z" fill="#5b6665"/><path d="m1826.3 836.3c-11.4 20.4-37.8 18.2-52.5 41.2-.4-.7-5.7-2.6-11.2-11.2-2.3-3.5-9.3-19.7-11.2-22.5 29.3-42.7 14.9-44.6 7.5-75-30.7-125.7-101.3-250.6-105-264.4-11.6-43.4 68.5 102.7 75 116.2 29.7 61.8 41.1 118.7 97.5 215.6z" fill="#094151"/><path d="m1758.8 768.8c7.4 30.4 21.8 32.3-7.5 75-51.3-72.8-113.4-105.2-131.2-150 0-1.2 0-2.5 0-3.7 15.2 1.4 1.5-40.5 20.6-37.5q54.4 61.9 108.7 123.7 4.7-3.7 9.4-7.5z" fill="#094151"/><path d="m1646.3 555.1c-5.6 33.9-26.5 47.7-26.2 50.6.4 4 11.3 6.3 11.2 7.5-.6 11.9-10.7 56.9-11.2 76.9v3.7c-.6 20.2-4.1 33.4-3.7 41.2l-15 3.7c-.1-.4-.8-.7-3.7-7.5-15.9-37-12 1.4-26.2-22.5 31-32.2 71.2-78.8 37.5-71.2-10.1 3.2-80.5 66.9-97.5 78.7q20.6-43.1 41.2-86.2c3.3-.2 3.8 3.4 7.5 3.7 13.3 1.4 60-50 71.2-63.7 7-8.5 1.7-23.4 15-15z" fill="#fdc591"/><path d="m1867.5 821.3c-6.6 5.4-14.6 8.6-15 9.4-12.1 23.4 7.5 63.6-26.2 5.6.3-.5 6.4 1.5 7.5-1.9.9-2.9-18.9-44.9-9.4-58.1 7.3-5.9 51.6 32.6 43.1 45z" fill="#094151"/><path d="m1822.5 536.3c-14.1-32.2-22.5-67.3-41.2-97.5 1.4-.5-6.3-20.9 18.7-5.6 3.7 3.8 29.5 89.7 22.5 103.1z" fill="#022a37"/><path d="m1443.8 723.8c-.7 51.8-57 82.2-41.2 105-16.1 19.4-54.7 61.3-60 71.2-24.2-43 22-48.3 7.5-82.5 9.9-11.1 7.1-11.4-3.7-18.7 8-8.2 75.3-87.2 82.5-73.1-11.9 28.9 5.3 8.8 15-1.9z" fill="#f36f3a"/><path d="m1447.6 787.6c1.6-2.7 16-50.2 18.7-60 25.4 14.8 26.3 1.8 45-11.2 17-11.9 87.4-75.6 97.5-78.7 20.2 9.7-133.2 161.3-144.4 161.2-2.4 0-8-13-16.9-11.2z" fill="#f6ac1b"/><path d="m1466.3 727.6c-2.8 9.8-17.1 57.3-18.7 60-2.5 4.1-37.9 32.8-45 41.2-15.8-22.8 40.6-53.2 41.2-105 31.5-34.6 38.4-52.4 22.5 3.7z" fill="#f58126"/><path d="m1631.3 570.1c-11.2 13.7-57.9 65.1-71.2 63.7 32.8-52.1 79.5-123.7 71.2-63.7z" fill="#f8c466"/><path d="m2396.2 607.6c-32.6 33.6-71.1 61.3-101.2 97.5-14.5-.2-25.5 13.1-28.1-7.5-136.5 127.6-17 4.9 39.4-41.2 17.7-14.5 37.9-27.5 56.2-41.2 19.2-14.4 37.4-30.5 56.2-45 .5-.4 5.6.6 11.2-3.7-1.7 2.1-.3 6.8-33.7 41.2z" fill="#f7c11d"/><path d="m1068.8 843.8c7.8 7.6 24.7 6.4 30 7.5 44.2 8.9 19.5 6-33.7 61.9 1.9 4.9 57.6-17.6 63.7-20.6-12 26.6 19.1 16.6 37.5 43.1 6.7 9.7 16.3 52.3 18.7 56.2 4.2 6.9 20.1 17.7 26.2 26.2.7 1 3.3 16.8 7.5 22.5 8.9 12 24.7 4.3 52.5 61.9-10 6.3-19.9 12.5-30 18.7-3-9.3-15.3 0-18.7-1.9-7.5-4.1-86.6-109.6-110.6-129.4-31.4-25.8-104.3-46.7-99.4-82.5.5-3.3 20.7-37 22.5-48.7 16.4-5.4 21.5-1.8 33.7-15z" fill="#b4525f"/><path d="m1065.1 716.3c20.3 33.7 45.1 96 33.7 135-5.3-1.1-22.2 0-30-7.5-13.1-12.7-22.1-85.7-18.7-105 1.6-9.2 1.8-23.1 15-22.5z" fill="#cc7a6a"/><path d="m1616.3 735.1c1.2 30.6 14.6 79.9 26.2 108.7 9.9 24.5 15.3 28.5 26.2 48.7 1.6 9.3-7.2 10.7-7.5 11.2-12-1.2-48.9 1.9-50.6 3.7-5.9 6.6 4.6 24.8-9.4 22.5 4.6-38.8 5.1-77.3 3.7-116.2-.2-6.2.4-12.5 0-18.7-1.1-18.6.9-37.8-3.7-56.2l15-3.7z" fill="#aa7262"/><path d="m1605 813.8c1.3 38.9.9 77.4-3.7 116.2-1.4 11.7-.4 16.4-3.7 30-2.7 11.1-6.6 23.4-11.2 33.7-6.2 13.8-52.7 75.1-52.5 84.4.1 4.5 36.9 67 33.7 82.5 24.2 6.5 55-5.6 52.5 9.4-12.9-1.4-116.3-6.3-121.9-3.7-9.1 4.2-11.9 20.5-16.9 26.2-6.1-2-25.4 5.2-37.5 7.5-43.9-4.1-208.5 48.5-223.1 48.7-2.8 0-54.2-11.5-50.6-16.9 71-12.4-10.1-28.2-3.7-52.5 17-8.4 18.6-23.6 33.7-35.6 12.8-10.2 27.8-14.2 41.2-22.5 10-6.2 20-12.5 30-18.7 12.2-7.6 38.3-16.5 63.7-33.7 34.2-23.2 80.9-60.1 105-93.7 80.1 1.4 69-4.5 45-82.5 15.4-23.2 29.5-47.9 45-71.2 3.6 3.3 7.1 21.2 7.5 26.2 1.1 13.6-1.2 27.7 0 41.2 10.6 116.9 20.1 186.5 30 26.2-2.2-18.8 6.6-35.1 11.2-52.5 6.4-23.8 6-55.1 26.2-48.7z" fill="#094151"/><path d="m1440.1 975c7.7-10.8 26.8-55.1 45-82.5 24 77.9 35.1 83.9-45 82.5z" fill="#2a5865"/><path d="m1605 795.1c.4 6.2-.2 12.5 0 18.7-20.3-6.3-19.9 25-26.2 48.7l-41.2-15c-.4-5.1-3.9-22.9-7.5-26.2 4.2-6.3 7.2-7.1 7.5-7.5 20.9 8.8 23.6-14.7 39.4 7.5 10.2-13-3.6-23 5.6-33.7 12.7-.6 14.2-12.2 22.5 7.5z" fill="#a68d86"/><path d="m1661.3 903.8c-2 3.5-5.5 19-7.5 22.5-6.2 10.8-19 30.9-26.2 41.2q-15-3.7-30-7.5c3.3-13.6 2.4-18.3 3.7-30 13.9 2.3 3.4-15.9 9.4-22.5 1.7-1.9 38.6-4.9 50.6-3.7z" fill="#964f5a"/><path d="m1567.5 915.1c-9.9 160.2-19.4 90.7-30-26.2 35.8.8 21.4 10.5 30 26.2z" fill="#905c68"/><path d="m1578.8 862.6c-4.7 17.4-13.4 33.7-11.2 52.5-8.6-15.8 5.9-25.5-30-26.2-1.2-13.5 1.1-27.7 0-41.2l41.2 15z" fill="#876b6d"/><path d="m1627.5 967.5c-17.8 25.4-18.3 40.5-41.2 26.2 4.7-10.3 8.5-22.7 11.2-33.7q15 3.7 30 7.5z" fill="#964f5a"/><path d="m2028.8 787.6c-.7 1.9.7 5.7 0 7.5-.5 1.4 6.7 8.2 3.7 16.9-7.8 22.7-53.6 93-67.5 125.6-18.9 8.9-8.8-2.6-20.6 3.7-17.4 9.5-86.1 72.7-58.1 93.7-11.3 10.4-27.4 28.7-37.5 37.5-5.3 4.6-27.5 16.7-30 18.7-32.7-8.9-26.4-87-11.2-106.9 7.5-9.9 10.6 1.3 13.1-1.9 52.3-66 140.2-151.2 208.1-195z" fill="#a78758"/><path d="m2047.5 735.1c-2.6 5.4-14.3 39.9-18.7 52.5-67.9 43.8-155.8 128.9-208.1 195-2.5 3.2-5.6-8-13.1 1.9-15.1 19.9-21.4 98 11.2 106.9-6.4 5.3-12.3 9.9-18.7 15q-5.6.9-11.2 1.9c-39.4-58.3-32.1-98.3 11.2-148.1 25.7 16.5 11.6-9.4 3.7-26.2 86.3-54 96.2-94.2 101.2-99.4 18-18.7 41.3-33.9 60-54.4 13.2-14.5 24-33.4 37.5-48.7 7.8-8.9 17.2-16.4 22.5-22.5 11 11.8 3.4 31.3 22.5 26.2z" fill="#7c7766"/><path d="m2006.3 1158.8c-15 12.6-47.5 30.8-65.6 41.2q-45.9-63.7-91.9-127.5c10.1-8.8 26.2-27.1 37.5-37.5 10.9-10.1 23.2-19.6 33.7-30 20 15.2 60.9 150.2 67.5 155.6 2.2 1.8 13.4-4.4 18.7-1.9z" fill="#5c5c60"/><path d="m2433.7 772.6c-1.1 48.9-12.8 89.8-56.2 112.5 4.3-14.7 33-149.1 20.6-146.2-37.1 63-66.4 129.9-99.4 195-34.2-38.8-42.9-108.1-30-153.7 11.6 7.6 22.8 15 37.5 15-1.7 13.9-3.7 17.8-3.7 18.7h-9.4c-7.2 7.2 2.6 21.2 9.4 0 0 5.6 11.5 60.4 16.9 60 22.1-37.1 16.1-43.5 16.9-60 23.6-34.4 45.7-71.2 75-101.2 18.5 4.1 18.9 42.6 22.5 60z" fill="#cb886e"/><path d="m1800 960c-43.4 49.8-50.6 89.8-11.2 148.1q5.6-.9 11.2-1.9c-19 15.2-36.8 30.2-56.2 45-30.4-31.3-31.2-39.2-37.5-78.7 21 34.7 35.5 47 22.5-5.6-3.5-14.1-24.5 2.5 0-73.1.5-1.6 5.8-1 15-26.2 3.1-8.5 3.7-35.9 18.7-45 7.9 7.3 34.3 35.5 37.5 37.5z" fill="#5b6665"/><path d="m1976.3 948.8c-5 13.9-20.6 63 7.5 52.5-1.5 7.6 33.9 170.6 48.7 127.5-7.2 7.8-19.5 24.3-26.2 30-5.3-2.5-16.6 3.7-18.7 1.9-6.6-5.4-47.5-140.4-67.5-155.6 18.6-18.4 34.7-40.8 56.2-56.2z" fill="#964f5a"/><path d="m2268.7 780.1c-12.9 45.6-4.2 115 30 153.7-7.6 14.9-14.7 30.1-22.5 45q-20.6-39.4-41.2-78.7c4.8-50.3 11.2-73.9-37.5-90 8-6.3 52.8-49.1 58.1-48.7 10.6.7-.3 9.9 13.1 18.7z" fill="#876b6d"/><path d="m2145 847.6c-25.8 35.2-54.2 202.5-75 243.7-2.5 0-5 0-7.5 0q26.2-94.7 52.5-189.4c-26.9 6.1-50.6 34.3-71.2 50.6-4.6 3.6-10.8 3.4-11.2 3.7-16.1-8.9 14.7-29.8 7.5-48.7 52.6-27.1 73.9-52.2 101.2-71.2q1.9 5.6 3.7 11.2z" fill="#e5967e"/><path d="m2235 900.1q20.6 39.4 41.2 78.7c-12.3 23.6-24.3 73.4-41.2 50.6-27.4-63.6-22.9-130.8-26.2-144.4 20.4-15.7 23.3 45.6 26.2 15z" fill="#5c5c60"/><path d="m2047.5 1117.5c-1.8 1.6-5.5 12.8-15 11.2-14.9 43.1-50.2-119.8-48.7-127.5 1.6-8.4 21.8-18.7 30-26.2 10.3 39.4 7 118.7 33.7 142.5z" fill="#b4525f"/><path d="m2325 735.1c-2.1 19.7-16.4 41.1-18.7 60-14.7 0-25.8-7.4-37.5-15-13.4-8.8-2.6-18.1-13.1-18.7-5.3-.3-50.1 42.5-58.1 48.7-.7.6-1-1.2-15 11.2-2.1 1.8-32 18.7-37.5 26.2q-1.9-5.6-3.7-11.2c67.5-47.2 93.8-90 183.7-101.2z" fill="#c5a496"/><path d="m2062.5 1091.3h7.5c-4.3 8.5-14.9 19.7-22.5 26.2-26.7-23.7-23.4-103-33.7-142.5 6.5-5.9 14-14.7 18.7-18.7.5-.4 6.7-.2 11.2-3.7 1.4 16.5.6 139.4 18.7 138.7z" fill="#da5a5f"/><path d="m2197.5 810.1c48.7 16.1 42.3 39.7 37.5 90-2.9 30.6-5.9-30.7-26.2-15-1.8-7.4-37.9-51.6-26.2-63.7 14-12.4 14.3-10.7 15-11.2z" fill="#516d7c"/><path d="m1728.8 993.8c-24.5 75.6-3.5 59 0 73.1 13 52.6-1.5 40.3-22.5 5.6-1.7-10.8 6.3-21 3.7-35.6-.3-2-16.7-26.1-18.7-33.7-5.4-20-13.2-93.6-37.5-76.9 2-3.5 5.5-19 7.5-22.5.3-.6 9.1-2 7.5-11.2.3.6 6.9-1.9 11.2 5.6 17.6 30.8 28.1 66.3 48.7 95.6z" fill="#5f535b"/><path d="m2456.2 870.1c5.5-17.2-17-46.7-18.7-54.4-2.9-13.1-.5-27.5-3.7-43.1-3.6-17.4-4-55.9-22.5-60 54.4-55.8 23.4-24.7 37.5 31.9 4.1 16.5 25.5 57.8 26.2 71.2 1.4 24.9-18.1 51.6-18.7 54.4z" fill="#eda27c"/><path d="m2373.7 663.8c-5.6 10.9-25.3 42.6-26.2 45-16.5-6.5-35.4-3.5-52.5-3.7 30.1-36.2 68.7-63.9 101.2-97.5 2.2 20.9-13.1 37.9-22.5 56.2z" fill="#fdbd6d"/><path d="m2340 731.3c-4.5 15.9-10.2 62.5-11.2 80.6-.2 3 7.5 1.5 7.5 1.9-.8 16.5 5.3 22.9-16.9 60-5.3.4-17-54.4-16.9-60 0-1 2.1-4.9 3.7-18.7 2.3-18.9 16.6-40.3 18.7-60 .8 0-2.1-5.7 15-3.7z" fill="#e5967e"/><path d="m1976.3 701.3c-2.8 3.6-21.1 6.9-58.1 67.5-5.8-6.8 2.5-11.5 1.9-18.7 29.5-44.3 56.2-91 99.4-123.7 8.4 4.5-36.1 65.9-43.1 75z" fill="#2f1d1e"/><path d="m2002.5 731.3c-13.5 15.4-24.3 34.2-37.5 48.7-5.9.9 0-8.7 3.7-15 11.9-20.1 23.2-41.6 37.5-60-2.7 6.7-11.6 24.6-3.7 26.2z" fill="#4d2b16"/><path d="m2040 907.6c7.2 18.9-23.6 39.9-7.5 48.7-4.7 4-12.3 12.8-18.7 18.7-8.2 7.5-28.3 17.8-30 26.2-28.1 10.5-12.5-38.6-7.5-52.5 3.4-9.4 5.6-11.2 11.2-18.7 18.1-8.4 42.2-17.2 52.5-22.5z" fill="#ba807a"/><path d="m1987.5 930c-5.6 7.6-7.9 9.4-11.2 18.7-21.6 15.5-37.6 37.8-56.2 56.2-10.5 10.4-22.9 19.9-33.7 30-27.9-21 40.7-84.3 58.1-93.7 11.8-6.4 1.7 5.1 20.6-3.7 13.5-6.3 21.4-7 22.5-7.5z" fill="#c9924c"/><path d="m2362.5 615.1c-18.4 13.8-38.6 26.8-56.2 41.2q1.9-31.9 3.7-63.7c16.8 10 35.6 13.2 52.5 22.5z" fill="#121922"/><path d="m2070 701.3c-10 10.2-7.1 10.7-7.5 11.2-.8 1.1-1-7-15 22.5-19.1 5.1-11.5-14.4-22.5-26.2 27.2-31.6 52-64.9 82.5-93.7h3.7c-7.5 11.1-35.9 70.9-41.2 86.2z" fill="#6c7876"/><path d="m2070 701.3c5.3-15.3 33.7-75.1 41.2-86.2 5.6-8.3 10.8-10.6 11.2-11.2 13.2 16.7-17.8 35.4 11.2 28.1-8.1 46.6-33.2 38.3-63.7 69.4z" fill="#e88b24"/><path d="m2062.5 712.6c.4-.6-2.5-1.1 7.5-11.2-1.6 4.6-.5 12-3.7 16.9q-1.9-2.8-3.7-5.6z" fill="#e88b24"/><path d="m1762.5 866.3c5.5 8.6 10.8 10.6 11.2 11.2 2.4 4 28.7 53.4 30 56.2 7.8 16.9 21.9 42.7-3.7 26.2-3.2-2-29.6-30.2-37.5-37.5-2.1-2-3.5-14.8-20.6-22.5-14.7 21.7-8.6 37.9-9.4 69.4q5.6-.9 11.2-1.9c-9.2 25.3-14.5 24.6-15 26.2-20.7-29.3-31.1-64.9-48.7-95.6-4.3-7.5-10.9-5.1-11.2-5.6-10.9-20.2-16.4-24.2-26.2-48.7 27.2 3.8 75.8 44.8 80.6 45 11.5.5 26.1-24.5 39.4-22.5z" fill="#094151"/><path d="m1751.3 843.8c2 2.8 9 19 11.2 22.5-13.3-2-27.9 23-39.4 22.5-4.8-.2-53.4-41.2-80.6-45-11.6-28.9-25-78.1-26.2-108.7-.3-7.8 3.1-21.1 3.7-41.2 17.8 44.8 79.9 77.2 131.2 150z" fill="#022a37"/><path d="m1571.3 708.8c-4.1 4.3-14.4 10.7-26.2 22.5-19 18.9-40.3 37.8-60 56.2-16.1 15.2-170.9 165.6-142.5 112.5 5.3-10 43.9-51.9 60-71.2 7.1-8.5 42.5-37.1 45-41.2 8.8-1.8 14.5 11.2 16.9 11.2 11.1 0 164.6-151.5 144.4-161.2 33.7-7.5-6.5 39.1-37.5 71.2z" fill="#e88b24"/><path d="m1601.3 738.8c4.7 18.4 2.7 37.6 3.7 56.2-8.3-19.7-9.8-8.1-22.5-7.5-22.3 1-15.2 8.2-30 3.7 4.7-6.8 8-14.3 11.2-18.7.6-.9-2.3-.8 11.2-18.7 3.2-4.2 17-17.9 22.5-22.5 2.9 6.8 3.6 7.1 3.7 7.5z" fill="#c5a496"/><path d="m1597.5 731.3c-5.5 4.6-19.3 18.3-22.5 22.5-4.4-15.8-16.4-18.6-30-22.5 11.9-11.8 22.1-18.2 26.2-22.5 14.3 23.9 10.4-14.6 26.2 22.5z" fill="#fdc591"/><path d="m1350.1 817.6c-33.6 31.5-12.2 28.5-15 31.9-3.2 3.9-6-4.9-9.4-1.9-73.6 66.1-68.7 120.4-7.5 41.2 45.2 16.2-46.9 49.9-18.7 97.5 78.6-62.5 7.5 41.7 35.6 82.5-25.4 17.3-51.6 26.1-63.7 33.7-27.8-57.5-43.6-49.9-52.5-61.9-4.2-5.7-6.8-21.5-7.5-22.5-6.2-8.5-22.1-19.3-26.2-26.2-2.4-4-12-46.6-18.7-56.2-18.4-26.5-49.5-16.5-37.5-43.1 20.8-10.2 41.2-27.4 60-41.2 32.7 8.5 37.2 18.1 39.4 18.7 3.5 1 29-30.8 9.4 35.6 9.7 13.6 87-88.3 97.5-99.4 1.6-1.7 9.6-5.8 11.2-7.5 10.8 7.3 13.7 7.7 3.7 18.7z" fill="#da5a5f"/><path d="m1265.7 918.8q2.8 8.4 5.6 16.9c-25.5 32.5-33.2 3.7-5.6-16.9z" fill="#f1765d"/><path d="m1575 753.8c-13.6 17.9-10.6 17.9-11.2 18.7q-25.3 24.4-50.6 48.7c-10-31.1-28.5-24.9-28.1-33.7 19.7-18.5 41-37.3 60-56.2 13.6 3.9 25.6 6.7 30 22.5z" fill="#eda27c"/><path d="m1582.5 787.6c-9.2 10.8 4.6 20.8-5.6 33.7-15.7-22.2-18.5 1.3-39.4-7.5 5.1-7.5 9.7-14.8 15-22.5 14.8 4.4 7.7-2.7 30-3.7z" fill="#be978f"/><path d="m1563.8 772.6c-3.2 4.5-6.5 11.9-11.2 18.7-5.3 7.7-9.9 15-15 22.5-.3.4-3.3 1.2-7.5 7.5-15.5 23.3-29.6 48.1-45 71.2-18.2 27.4-37.3 71.7-45 82.5-24.1 33.7-70.7 70.5-105 93.7-28.1-40.8 43-145-35.6-82.5-28.1-47.5 63.9-81.3 18.7-97.5-61.2 79.1-66.1 24.9 7.5-41.2 3.4-3 6.1 5.8 9.4 1.9 2.8-3.4-18.6-.4 15-31.9 14.5 34.2-31.7 39.5-7.5 82.5-28.4 53.1 126.3-97.3 142.5-112.5-.4 8.9 18.2 2.7 28.1 33.7q25.3-24.4 50.6-48.7z" fill="#f1765d"/><path d="m1471.9 873.8 5.6 9.4c-25.8 58.4-21.2-14.8-5.6-9.4z" fill="#f68c67"/><path d="m2302.5 813.8c-6.8 21.2-16.6 7.2-9.4 0z" fill="#cb886e"/><path d="m1762.5 922.5c-15.1 9.1-15.7 36.5-18.7 45q-5.6.9-11.2 1.9c.8-31.5-5.4-47.6 9.4-69.4 17.1 7.7 18.5 20.5 20.6 22.5z" fill="#254e64"/><path d="m2062.5 1091.3c-18.2.7-17.3-122.3-18.7-138.7 20.6-16.3 44.3-44.5 71.2-50.6q-26.2 94.7-52.5 189.4z" fill="#f1765d"/></svg>