<svg version="1.1" xmlns="http://www.w3.org/2000/svg" xmlns:xlink="http://www.w3.org/1999/xlink" x="0px" y="0px"
	viewBox="0 0 1080 1080" style="enable-background:new 0 0 1080 1080;" xml:space="preserve">
	<title>Sierra Lighting Icon</title>
	<style>
    path { fill: #000; }
    @media (prefers-color-scheme: dark) {
      path { fill: #fff; }
    }
  </style>
<g>
	<path d="M253.8,888.8l198.6,67c3.3,1.1,6.8-0.7,7.9-3.9l18-53.5l-210.4-71l-18,53.5C248.8,884.1,250.4,887.7,253.8,888.8z"/>
	<path d="M215.4,1003.8l197.7,66.6c3.5,1.2,7.3-0.7,8.5-4.2l17.9-53.1l-210.4-70.9l-17.9,53.1C210,998.8,211.9,1002.6,215.4,1003.8z
		"/>
	<path d="M868.8,327c4.9-126.8-69-246.7-212.9-300.1C496.8-26.8,328.5,42.8,263.5,221.6C236,297.3,238.4,352.2,251,398l98.7-146.3
		l53.4,67.9l-0.1,0.2l79.4,100.9l0.3-63.8l-43.8-53.1L556.8,133l152,188.9l0,0c49.9,41.6,83.5,166.7-73.9,166.7
		c-283.8,0-320.3,92.9-353.2,190.6c-6.9,20.4-9.5,74.3,47.7,93.7c48.3,16.5,86.4,31.1,133.6,45.1c57.3,17.1,85.6-20.6,92.9-42.5
		c24.3-72.1,28-108.8,102.7-147.6c89.9-46.5,130.1-117.9,130.1-174.7c0-80.8-45.8-115.8-74.8-138.2l72.4-100.1L868.8,327z"/>
</g>
</svg>
