<!-- <svg version="1.1" id="Layer_1" xmlns="http://www.w3.org/2000/svg" xmlns:xlink="http://www.w3.org/1999/xlink" x="0px" y="0px"
	viewBox="0 0 24 24" style="enableBackground:new 0 0 24 24;" xml:space="preserve">
	<title>Sierra Lighting Icon</title>
	<style>
    path { fill: #000; }
    @media (prefers-color-scheme: dark) {
      path { fill: #fff; }
    }
  </style>
<path d="M10.9,5.5c0-1.8,1.5-3.4,3.4-3.4c1.9,0,3.5,1.7,2.2,4.8h2.5C20.6,3.4,18.6,0,14.6,0C11,0,8.4,2.9,8.4,5.8
	c-0.1,5.2,6.1,5.2,6.1,9.1c0,2.1-1.8,4-4.1,4c-2,0-3.4-1.3-3.4-3.1c0-1.1,0.4-2.3,1.2-3L6,11.6c-0.9,1-1.6,2.8-1.6,4.2
	c0,3.1,2.3,5.3,5.7,5.3c4,0,6.9-3.2,6.9-6.4C17.1,9.5,10.9,9.4,10.9,5.5z"/>
<g>
	<path d="M11.3,11.7c0,0-0.1-0.1-0.1-0.1c-0.7,2.1-1.4,4.2-2.1,6.2c0.4,0.2,0.8,0.3,1.3,0.3c0.4,0,0.8-0.1,1.1-0.2
		c0.5-1.6,1-3.1,1.6-4.7C12.6,12.7,12,12.2,11.3,11.7z"/>
	<path d="M14.1,8.7c0.1,0.1,0.2,0.2,0.3,0.2c0.4-1.3,0.9-2.6,1.3-3.9c-0.7-0.5-1.4-1-1.9-1.6C13.4,4.7,13,6,12.5,7.4
		C12.9,7.8,13.5,8.2,14.1,8.7z"/>
	<path d="M10.1,21.9c-0.9,0-1.7-0.1-2.4-0.4c-0.3,0.8-0.6,1.6-0.8,2.4h9.4l0.7-2.2h-5.8C10.9,21.9,10.5,21.9,10.1,21.9z"/>
</g>
</svg> -->
<svg version="1.1" id="Layer_1" xmlns="http://www.w3.org/2000/svg" xmlns:xlink="http://www.w3.org/1999/xlink" x="0px" y="0px"
	 viewBox="0 0 696.7 1080" style="enable-background:new 0 0 696.7 1080;" xml:space="preserve">
	 <title>Sierra Lighting Icon</title>
	<style>
    path { fill: #000; }
    @media (prefers-color-scheme: dark) {
      path { fill: #fff; }
    }
  </style>
<g>
	<path d="M62.1,888.8l198.6,67c3.3,1.1,6.8-0.7,7.9-3.9l18-53.5L76.2,827.4l-18,53.5C57.1,884.1,58.8,887.7,62.1,888.8z"/>
	<path d="M23.8,1003.8l197.7,66.6c3.5,1.2,7.3-0.7,8.5-4.2l17.9-53.1L37.5,942.2l-17.9,53.1C18.4,998.8,20.3,1002.6,23.8,1003.8z"/>
	<path d="M677.2,327c4.9-126.8-69-246.7-212.9-300.1C305.1-26.8,136.9,42.8,71.9,221.6c-27.5,75.7-25.1,130.6-12.5,176.4l98.7-146.3
		l53.4,67.9l-0.1,0.2l79.4,100.9l0.3-63.8l-43.8-53.1l117.8-170.8l152,188.9l0,0c49.9,41.6,83.5,166.7-73.9,166.7
		c-283.8,0-320.3,92.9-353.2,190.6c-6.9,20.4-9.5,74.3,47.7,93.7c48.3,16.5,86.4,31.1,133.6,45.1c57.3,17.1,85.6-20.6,92.9-42.5
		c24.3-72.1,28-108.8,102.7-147.6C556.8,581.4,597,510,597,453.2c0-80.8-45.8-115.8-74.8-138.2l72.4-100.1L677.2,327z"/>
</g>
</svg>
