<svg version="1.1" id="Layer_1" xmlns="http://www.w3.org/2000/svg" xmlns:xlink="http://www.w3.org/1999/xlink" x="0px" y="0px"
	viewBox="0 0 24 24" style="enable-background:new 0 0 24 24;" xml:space="preserve">
	<title>Sierra Lighting Icon</title>
	<style>
    path { fill: #000; }
    @media (prefers-color-scheme: dark) {
      path { fill: #fff; }
    }
  </style>
<path d="M10.9,5.5c0-1.8,1.5-3.4,3.4-3.4c1.9,0,3.5,1.7,2.2,4.8h2.5C20.6,3.4,18.6,0,14.6,0C11,0,8.4,2.9,8.4,5.8
	c-0.1,5.2,6.1,5.2,6.1,9.1c0,2.1-1.8,4-4.1,4c-2,0-3.4-1.3-3.4-3.1c0-1.1,0.4-2.3,1.2-3L6,11.6c-0.9,1-1.6,2.8-1.6,4.2
	c0,3.1,2.3,5.3,5.7,5.3c4,0,6.9-3.2,6.9-6.4C17.1,9.5,10.9,9.4,10.9,5.5z"/>
<g>
	<path d="M11.3,11.7c0,0-0.1-0.1-0.1-0.1c-0.7,2.1-1.4,4.2-2.1,6.2c0.4,0.2,0.8,0.3,1.3,0.3c0.4,0,0.8-0.1,1.1-0.2
		c0.5-1.6,1-3.1,1.6-4.7C12.6,12.7,12,12.2,11.3,11.7z"/>
	<path d="M14.1,8.7c0.1,0.1,0.2,0.2,0.3,0.2c0.4-1.3,0.9-2.6,1.3-3.9c-0.7-0.5-1.4-1-1.9-1.6C13.4,4.7,13,6,12.5,7.4
		C12.9,7.8,13.5,8.2,14.1,8.7z"/>
	<path d="M10.1,21.9c-0.9,0-1.7-0.1-2.4-0.4c-0.3,0.8-0.6,1.6-0.8,2.4h9.4l0.7-2.2h-5.8C10.9,21.9,10.5,21.9,10.1,21.9z"/>
</g>
</svg>
